<svg width="56" height="56" viewBox="0 0 56 56" fill="none" xmlns="http://www.w3.org/2000/svg">
  <rect width="56" height="56" rx="12" fill="url(#grad)"/>
  <defs>
    <linearGradient id="grad" x1="0" y1="0" x2="56" y2="56">
      <stop offset="0%" stop-color="#a855f7"/>
      <stop offset="100%" stop-color="#9333ea"/>
    </linearGradient>
  </defs>
  <g transform="translate(14,14)">
    <svg class="lucide lucide-rocket w-7 h-7 text-white" fill="none" height="24" stroke="currentColor" stroke-linecap="round" stroke-linejoin="round" stroke-width="2" viewbox="0 0 24 24" width="24" xmlns="http://www.w3.org/2000/svg">
<path d="M4.5 16.5c-1.5 1.26-2 5-2 5s3.74-.5 5-2c.71-.84.7-2.13-.09-2.91a2.18 2.18 0 0 0-2.91-.09z">
</path>
<path d="m12 15-3-3a22 22 0 0 1 2-3.95A12.88 12.88 0 0 1 22 2c0 2.72-.78 7.5-6 11a22.35 22.35 0 0 1-4 2z">
</path>
<path d="M9 12H4s.55-3.03 2-4c1.62-1.08 5 0 5 0"></path>
<path d="M12 15v5s3.03-.55 4-2c1.08-1.62 0-5 0-5"></path>
</svg>
  </g>
</svg>